<svg width="70" height="62" viewBox="0 0 70 62" fill="none" xmlns="http://www.w3.org/2000/svg">
<g clip-path="url(#clip0)" filter="url(#filter0_d)">
<path d="M23.5423 19.7695C22.967 19.1941 22.0341 19.1941 21.4588 19.7695C20.8835 20.3448 20.8835 21.2774 21.4588 21.8527C22.0341 22.4281 22.967 22.4281 23.5423 21.8527C24.1175 21.2774 24.1175 20.3448 23.5423 19.7695Z" fill="#FF9900"/>
<path d="M33.958 19.7695C33.3828 19.1943 32.4501 19.1943 31.8748 19.7695C31.2995 20.3448 31.2995 21.2775 31.8748 21.8527C32.4501 22.428 33.3828 22.428 33.958 21.8527C34.5333 21.2775 34.5333 20.3448 33.958 19.7695Z" fill="#FF9900"/>
<path d="M41.249 32.2695C40.6738 31.6943 39.7411 31.6943 39.1658 32.2695C38.5906 32.8448 38.5906 33.7775 39.1658 34.3527C39.7411 34.928 40.6738 34.928 41.249 34.3527C41.8243 33.7775 41.8243 32.8448 41.249 32.2695Z" fill="#FF9900"/>
<path d="M51.6673 32.2695C51.092 31.6941 50.1591 31.6941 49.5838 32.2695C49.0085 32.8448 49.0085 33.7774 49.5838 34.3527C50.1591 34.9281 51.092 34.9281 51.6673 34.3527C52.2425 33.7774 52.2425 32.8448 51.6673 32.2695Z" fill="#FF9900"/>
<path d="M55.834 51.6577L49.415 48.4545C48.1066 48.7738 46.7645 48.9356 45.4176 48.9363C37.3705 48.9363 30.834 43.3242 30.834 36.4363C30.834 29.5481 37.3705 23.9363 45.4176 23.9363C53.4643 23.9363 60.0008 29.5481 60.0008 36.4363C60.0008 39.7437 58.5294 42.8294 55.834 45.1731V51.6577ZM49.6492 46.2409L53.7508 48.2981V44.1966L54.1414 43.8842C56.5763 41.9051 57.9176 39.2619 57.9176 36.4363C57.9176 30.6941 52.3054 26.0195 45.4176 26.0195C38.5294 26.0195 32.9176 30.6941 32.9176 36.4363C32.9176 42.1782 38.5294 46.8528 45.4176 46.8528C46.7188 46.8547 48.015 46.6838 49.2716 46.345L49.6492 46.2409Z" fill="#FF9900"/>
<path d="M16.25 42.2827V36.0976C12.2655 33.3113 10 29.2876 10 24.9777C10 16.931 17.9426 10.3945 27.7082 10.3945C37.4738 10.3945 45.4168 16.931 45.4168 24.9777L43.3332 25.017V24.9777C43.3332 18.0899 36.3283 12.4777 27.7082 12.4777C19.0885 12.4777 12.0832 18.0899 12.0832 24.9777C12.0832 28.7409 14.1927 32.2695 17.8648 34.6655L18.3332 34.978V38.9231L22.5912 36.8006L22.9688 36.8918C25.8607 37.6177 28.8808 37.6711 31.7968 37.0482L32.2397 39.0795C29.138 39.7421 25.9286 39.7154 22.8384 39.0013L16.25 42.2827Z" fill="#FF9900"/>
</g>
<defs>
<filter id="filter0_d" x="0" y="-4" width="70" height="70" filterUnits="userSpaceOnUse" color-interpolation-filters="sRGB">
<feFlood flood-opacity="0" result="BackgroundImageFix"/>
<feColorMatrix in="SourceAlpha" type="matrix" values="0 0 0 0 0 0 0 0 0 0 0 0 0 0 0 0 0 0 127 0"/>
<feOffset/>
<feGaussianBlur stdDeviation="5"/>
<feColorMatrix type="matrix" values="0 0 0 0 1 0 0 0 0 0.6 0 0 0 0 0 0 0 0 0.68 0"/>
<feBlend mode="normal" in2="BackgroundImageFix" result="effect1_dropShadow"/>
<feBlend mode="normal" in="SourceGraphic" in2="effect1_dropShadow" result="shape"/>
</filter>
<clipPath id="clip0">
<rect width="50" height="50" fill="white" transform="translate(10 6)"/>
</clipPath>
</defs>
</svg>
