<svg width="60" height="61" viewBox="0 0 60 61" fill="none" xmlns="http://www.w3.org/2000/svg">
<g filter="url(#filter0_d)">
<path d="M40.5264 33.8477C40.2788 33.7085 39.9982 33.5506 39.6602 33.3471C39.4715 33.2332 39.2343 33.0774 38.9829 32.9125C37.6927 32.0656 36.715 31.4662 35.8828 31.4662C35.6879 31.4662 35.5035 31.4992 35.3355 31.564C34.6063 31.8448 34.0076 32.5949 33.4286 33.3202C33.2164 33.5859 32.9127 33.9664 32.7284 34.1364C31.9974 34.0035 30.4555 33.0483 28.7916 31.3845C27.1258 29.7186 26.1704 28.175 26.0393 27.4457C26.2091 27.2607 26.5925 26.9548 26.8599 26.7412C27.5824 26.1643 28.3296 25.5679 28.6119 24.841C28.9721 23.9071 28.312 22.7902 27.2637 21.1932C27.0987 20.9418 26.9429 20.7044 26.8298 20.5172C26.6256 20.1778 26.4678 19.8971 26.3285 19.6496C25.7569 18.6338 25.3793 17.9624 23.9603 17.9624C23.0393 17.9624 21.7371 18.8327 20.8551 19.6958C19.5732 20.9504 18.8672 22.3988 18.8672 23.7771C18.8696 27.5207 20.9589 31.8113 24.5993 35.5531C24.6056 35.5593 24.6118 35.561 24.6183 35.5673C28.3601 39.2078 32.653 41.2899 36.3965 41.2899H36.398C37.7744 41.2899 39.2233 40.592 40.4778 39.3108C41.3416 38.4289 42.2131 37.1362 42.2131 36.2158C42.2132 34.7969 41.5422 34.4194 40.5264 33.8477ZM36.3969 39.3558C33.2082 39.3535 29.3185 37.4211 25.9899 34.1864C22.7549 30.8575 20.8225 26.9675 20.8204 23.7791C20.8204 21.8505 23.3231 20.0168 23.9776 19.9163C24.1113 19.9169 24.1814 19.9248 24.2148 19.9305C24.3014 20.0301 24.4733 20.3357 24.6265 20.6079C24.765 20.8542 24.9376 21.1608 25.1573 21.526C25.2901 21.746 25.4558 21.9982 25.6311 22.2652C25.9628 22.7707 26.6297 23.7867 26.7421 24.2204C26.5541 24.4865 25.9708 24.9521 25.6415 25.215C24.7986 25.888 24.0707 26.469 24.0707 27.2902C24.0728 29.2738 26.6277 31.9828 27.4107 32.7658C28.1938 33.5488 30.9027 36.1038 32.8905 36.1057C33.7064 36.1031 34.2851 35.3782 34.9552 34.5388C35.2194 34.2079 35.6879 33.6211 35.9551 33.4341C36.3883 33.5457 37.4056 34.2134 37.9114 34.5455C38.1784 34.7207 38.4306 34.8862 38.652 35.0199C39.0158 35.2388 39.3224 35.4114 39.5688 35.55C39.8408 35.7031 40.1466 35.8752 40.2462 35.9617C40.2519 35.995 40.2597 36.0651 40.2604 36.1987C40.1591 36.8526 38.3248 39.3535 36.3969 39.3558Z" fill="#FF9900"/>
<path d="M49.9576 30.0935C49.889 24.8161 47.7706 19.8291 43.9929 16.0513C40.1455 12.2038 35.0668 10.0849 29.6924 10.0849C24.5044 10.0849 19.6511 12.0812 16.0263 15.7059C12.8097 18.9225 10.8363 23.2125 10.4692 27.7859C10.121 32.1249 11.2256 36.516 13.5843 40.2079L10.3634 48.9142C10.2283 49.2796 10.3232 49.6905 10.6051 49.9595C10.7904 50.1364 11.033 50.2296 11.2795 50.2296C11.408 50.2296 11.5377 50.1924 11.6607 50.1402L20.0493 46.5704C23.2516 48.5636 26.9133 49.5909 30.6733 49.5909H30.6737C35.8608 49.5909 40.714 47.6184 44.3383 43.9941C48.0305 40.3018 50.0262 35.3804 49.9576 30.0935ZM42.9571 42.6368C39.7014 45.8924 35.3389 47.6853 30.6732 47.6852C27.1211 47.6851 23.6653 46.6455 20.6791 44.6785C20.5172 44.5718 20.3301 44.5175 20.1419 44.5175C20.0127 44.5175 19.883 44.5431 19.7607 44.5951L12.9798 47.471L15.5872 40.4231C15.6963 40.1281 15.6567 39.7986 15.4808 39.5379C10.6882 32.4378 11.4985 22.9958 17.4074 17.087C20.6632 13.8312 25.0261 12.038 29.6924 12.038C34.5451 12.038 39.1332 13.9537 42.6118 17.4324C46.0275 20.848 47.9426 25.3535 48.0045 30.1189C48.0664 34.8746 46.2738 39.3202 42.9571 42.6368Z" fill="#FF9900"/>
</g>
<defs>
<filter id="filter0_d" x="-5" y="-5" width="70" height="70" filterUnits="userSpaceOnUse" color-interpolation-filters="sRGB">
<feFlood flood-opacity="0" result="BackgroundImageFix"/>
<feColorMatrix in="SourceAlpha" type="matrix" values="0 0 0 0 0 0 0 0 0 0 0 0 0 0 0 0 0 0 127 0"/>
<feOffset/>
<feGaussianBlur stdDeviation="5"/>
<feColorMatrix type="matrix" values="0 0 0 0 1 0 0 0 0 0.6 0 0 0 0 0 0 0 0 0.68 0"/>
<feBlend mode="normal" in2="BackgroundImageFix" result="effect1_dropShadow"/>
<feBlend mode="normal" in="SourceGraphic" in2="effect1_dropShadow" result="shape"/>
</filter>
</defs>
</svg>
