<svg width="62" height="59" viewBox="0 0 62 59" fill="none" xmlns="http://www.w3.org/2000/svg">
<g filter="url(#filter0_d)">
<path d="M50.9106 11.4945C50.5339 11.1691 50.0753 10.953 49.5846 10.8697C49.0939 10.7863 48.5897 10.8388 48.1266 11.0215L12.0803 25.1826C11.5305 25.3986 11.0655 25.7868 10.7547 26.2891C10.4439 26.7914 10.3042 27.3809 10.3564 27.9693C10.4086 28.5577 10.6499 29.1133 11.0443 29.5531C11.4386 29.9929 11.9648 30.2932 12.544 30.409L22.0139 32.3027V44.0592C22.0134 44.6002 22.1734 45.1293 22.4738 45.5793C22.7742 46.0294 23.2013 46.3801 23.7012 46.5872C24.2011 46.7942 24.7512 46.8482 25.2818 46.7424C25.8125 46.6365 26.2997 46.3756 26.6819 45.9926L32.0079 40.6664L39.9737 47.6765C40.4691 48.1164 41.1084 48.3597 41.771 48.3605C42.059 48.3602 42.3452 48.3148 42.6192 48.226C43.0711 48.0826 43.4776 47.8233 43.798 47.4738C44.1184 47.1244 44.3417 46.697 44.4454 46.2344L51.7917 14.1771C51.9036 13.6921 51.8806 13.1858 51.7254 12.7129C51.5701 12.24 51.2884 11.8186 50.9108 11.4943L50.9106 11.4945ZM12.6911 27.7621C12.6784 27.6774 12.6962 27.5909 12.7413 27.5181C12.7863 27.4452 12.8557 27.3907 12.9372 27.3642L43.0991 15.5148L22.9141 30.0928L13.0036 28.1105C12.9187 28.0988 12.8407 28.0574 12.7835 27.9936C12.7262 27.9298 12.6935 27.8478 12.6911 27.7621ZM25.0245 44.3355C24.9698 44.3901 24.9002 44.4273 24.8245 44.4424C24.7487 44.4575 24.6702 44.4497 24.5988 44.4202C24.5275 44.3906 24.4665 44.3406 24.4235 44.2763C24.3806 44.2121 24.3577 44.1366 24.3577 44.0594V33.9344L30.245 39.1152L25.0245 44.3355ZM42.1608 45.7109C42.1457 45.7769 42.1138 45.8378 42.068 45.8878C42.0223 45.9377 41.9644 45.9749 41.9 45.9957C41.8356 46.0164 41.7669 46.0201 41.7006 46.0064C41.6343 45.9926 41.5727 45.9619 41.5219 45.9172L25.0622 31.4326L49.4731 13.8025L42.1608 45.7109Z" fill="#FF9900"/>
</g>
<defs>
<filter id="filter0_d" x="-4" y="-5" width="70" height="70" filterUnits="userSpaceOnUse" color-interpolation-filters="sRGB">
<feFlood flood-opacity="0" result="BackgroundImageFix"/>
<feColorMatrix in="SourceAlpha" type="matrix" values="0 0 0 0 0 0 0 0 0 0 0 0 0 0 0 0 0 0 127 0"/>
<feOffset/>
<feGaussianBlur stdDeviation="5"/>
<feColorMatrix type="matrix" values="0 0 0 0 1 0 0 0 0 0.6 0 0 0 0 0 0 0 0 0.68 0"/>
<feBlend mode="normal" in2="BackgroundImageFix" result="effect1_dropShadow"/>
<feBlend mode="normal" in="SourceGraphic" in2="effect1_dropShadow" result="shape"/>
</filter>
</defs>
</svg>
