<svg width="21" height="18" viewBox="0 0 21 18" fill="none" xmlns="http://www.w3.org/2000/svg">
<path d="M20.8609 8.30639C18.5778 3.7109 15.1265 1.39819 10.5 1.39819C5.87106 1.39819 2.42223 3.7109 0.139074 8.30869C0.0474951 8.49398 0 8.69634 0 8.90125C0 9.10616 0.0474951 9.30852 0.139074 9.49381C2.42223 14.0893 5.87346 16.402 10.5 16.402C15.1289 16.402 18.5778 14.0893 20.8609 9.49151C21.0464 9.11871 21.0464 8.68609 20.8609 8.30639ZM10.5 14.7451C6.61525 14.7451 3.77094 12.8628 1.76474 8.9001C3.77094 4.93744 6.61525 3.05506 10.5 3.05506C14.3847 3.05506 17.2291 4.93744 19.2352 8.9001C17.2315 12.8628 14.3871 14.7451 10.5 14.7451ZM10.4037 4.84999C8.0627 4.84999 6.16488 6.66333 6.16488 8.9001C6.16488 11.1369 8.0627 12.9502 10.4037 12.9502C12.7446 12.9502 14.6424 11.1369 14.6424 8.9001C14.6424 6.66333 12.7446 4.84999 10.4037 4.84999ZM10.4037 11.4774C8.91286 11.4774 7.70625 10.3245 7.70625 8.9001C7.70625 7.47566 8.91286 6.32276 10.4037 6.32276C11.8945 6.32276 13.1011 7.47566 13.1011 8.9001C13.1011 10.3245 11.8945 11.4774 10.4037 11.4774Z" fill="#868686"/>
</svg>
