<svg width="21" height="18" viewBox="0 0 21 18" fill="none" xmlns="http://www.w3.org/2000/svg">
<path d="M20.8609 8.38732C20.0143 6.6886 19.0068 5.3032 17.8384 4.23112L16.613 5.39816C17.6122 6.30762 18.4826 7.49736 19.2352 8.9791C17.2315 12.9289 14.3871 14.8051 10.5 14.8051C9.3332 14.8051 8.25849 14.634 7.27587 14.2918L5.94812 15.5563C7.31288 16.1565 8.83017 16.4566 10.5 16.4566C15.1289 16.4566 18.5826 14.1606 20.8609 9.56858C20.9525 9.3839 21 9.1822 21 8.97795C21 8.77371 20.9525 8.572 20.8609 8.38732ZM19.3299 1.03277L18.3032 0.0538171C18.2853 0.0367562 18.264 0.0232218 18.2407 0.0139874C18.2173 0.0047531 18.1922 0 18.1669 0C18.1416 0 18.1165 0.0047531 18.0931 0.0139874C18.0697 0.0232218 18.0484 0.0367562 18.0306 0.0538171L15.3965 2.5613C13.9442 1.85484 12.3121 1.50161 10.5 1.50161C5.87105 1.50161 2.41741 3.79761 0.139073 8.38962C0.0474951 8.5743 0 8.776 0 8.98024C0 9.18449 0.0474951 9.38619 0.139073 9.57088C1.04929 11.3967 2.14511 12.8601 3.42653 13.9613L0.877969 16.3878C0.841863 16.4222 0.821581 16.4688 0.821581 16.5175C0.821581 16.5661 0.841863 16.6128 0.877969 16.6472L1.90611 17.6264C1.94224 17.6608 1.99123 17.6801 2.04231 17.6801C2.09338 17.6801 2.14237 17.6608 2.1785 17.6264L19.3299 1.29242C19.3478 1.27538 19.362 1.25514 19.3717 1.23286C19.3814 1.21059 19.3864 1.18671 19.3864 1.1626C19.3864 1.13848 19.3814 1.1146 19.3717 1.09233C19.362 1.07005 19.3478 1.04981 19.3299 1.03277ZM1.76474 8.9791C3.77093 5.02933 6.61525 3.15308 10.5 3.15308C11.8135 3.15308 13.0078 3.36777 14.0914 3.80426L12.3983 5.41674C11.5965 5.00929 10.6783 4.85808 9.77941 4.9854C8.88047 5.11272 8.0483 5.51184 7.40566 6.12387C6.76303 6.73591 6.34395 7.52845 6.21026 8.38458C6.07658 9.24071 6.23535 10.1151 6.66317 10.8787L4.65409 12.7922C3.54213 11.8575 2.58359 10.5911 1.76474 8.9791ZM7.70625 8.9791C7.70667 8.57464 7.80726 8.17597 7.99986 7.81549C8.19245 7.45501 8.47161 7.14288 8.81467 6.90446C9.15772 6.66604 9.55499 6.50804 9.9742 6.44332C10.3934 6.37859 10.8227 6.40895 11.2273 6.53194L7.83413 9.76355C7.74909 9.50995 7.70594 9.24531 7.70625 8.9791Z" fill="#868686"/>
<path d="M10.4037 11.5481C10.3204 11.5481 10.2383 11.5444 10.1569 11.5373L8.88477 12.7488C9.64989 13.0279 10.4835 13.0899 11.2849 12.9274C12.0862 12.7648 12.8209 12.3847 13.4003 11.833C13.9796 11.2812 14.3788 10.5815 14.5494 9.81827C14.7201 9.05508 14.655 8.26116 14.3619 7.53247L13.0898 8.74401C13.0973 8.82154 13.1011 8.89975 13.1011 8.97911C13.1013 9.31652 13.0317 9.65066 12.8962 9.96242C12.7607 10.2742 12.562 10.5575 12.3115 10.796C12.061 11.0346 11.7636 11.2238 11.4362 11.3529C11.1089 11.4819 10.758 11.5482 10.4037 11.5481Z" fill="#868686"/>
</svg>
