<svg width="21" height="21" viewBox="0 0 21 21" fill="none" xmlns="http://www.w3.org/2000/svg">
<g clip-path="url(#clip0_402_329)">
<path d="M10.5 1.75C12.9124 1.75 14.875 3.71263 14.875 6.12587C14.875 8.53737 12.9124 10.5009 10.5 10.5009C8.08763 10.5009 6.125 8.53737 6.125 6.12587C6.125 3.71263 8.08763 1.75 10.5 1.75ZM10.5 0C7.11725 0 4.375 2.74225 4.375 6.12587C4.375 9.50775 7.11725 12.2509 10.5 12.2509C13.8827 12.2509 16.625 9.50775 16.625 6.12587C16.625 2.74225 13.8827 0 10.5 0ZM16.0729 11.6839C15.638 12.1196 15.148 12.4985 14.6221 12.8231C17.1351 14.4629 18.4529 17.2707 18.9726 19.2509H2.009C2.50842 17.2514 3.80416 14.4479 6.34392 12.8231C6.3494 12.8196 6.35488 12.8161 6.36037 12.8126C5.83275 12.4854 5.34363 12.103 4.90963 11.6646C1.18388 14.3526 0 19.1074 0 21H21C21 19.1257 19.74 14.3876 16.0729 11.6839Z" fill="#FF9900"/>
<path d="M18.9726 19.2509C18.4529 17.2707 17.1351 14.4629 14.6221 12.8231C14.6221 12.8231 12.1164 13.5 10.5 13.5C8.88358 13.5 6.34392 12.8231 6.34392 12.8231C3.80416 14.4479 2.50842 17.2514 2.009 19.2509H18.9726Z" fill="#FF9900"/>
<path d="M10.5 1.75C12.9124 1.75 14.875 3.71263 14.875 6.12587C14.875 8.53737 12.9124 10.5009 10.5 10.5009C8.08763 10.5009 6.125 8.53737 6.125 6.12587C6.125 3.71263 8.08763 1.75 10.5 1.75Z" fill="#FF9900"/>
</g>
<defs>
<clipPath id="clip0_402_329">
<rect width="21" height="21" fill="white"/>
</clipPath>
</defs>
</svg>
